<?xml version="1.0" standalone="no"?>
<!DOCTYPE svg PUBLIC "-//W3C//DTD SVG 20010904//EN"
 "http://www.w3.org/TR/2001/REC-SVG-20010904/DTD/svg10.dtd">
<svg version="1.0" xmlns="http://www.w3.org/2000/svg"
 width="119.000000pt" height="119.000000pt" viewBox="0 0 119.000000 119.000000"
 preserveAspectRatio="xMidYMid meet">
<metadata>
Created by potrace 1.14, written by Peter Selinger 2001-2017
</metadata>
<g transform="translate(0.000000,119.000000) scale(0.100000,-0.100000)"
fill="#000000" stroke="none">
<path d="M475 1149 c-334 -75 -530 -431 -413 -749 63 -168 219 -309 393 -355
58 -15 185 -21 234 -11 123 26 220 77 305 162 239 239 217 632 -46 842 -56 44
-169 98 -236 111 -62 13 -180 13 -237 0z m255 -15 c72 -15 193 -86 257 -151
261 -265 194 -704 -136 -877 -299 -157 -659 -14 -781 309 -28 76 -35 214 -15
300 52 218 231 387 455 429 33 6 175 -1 220 -10z"/>
<path d="M516 1083 c-11 -12 -6 -33 8 -33 19 0 28 27 11 33 -7 3 -16 3 -19 0z"/>
<path d="M571 1068 c-1 -23 3 -28 22 -27 15 1 17 3 5 6 -9 2 -19 14 -21 26 -4
18 -5 17 -6 -5z"/>
<path d="M643 1067 c-9 -19 -8 -23 8 -23 11 0 19 7 19 18 0 27 -16 30 -27 5z"/>
<path d="M474 1063 c4 -23 -8 -31 -19 -13 -11 17 -23 11 -18 -9 3 -13 12 -18
25 -16 30 6 33 12 19 37 l-12 23 5 -22z"/>
<path d="M705 1061 c-4 -12 -4 -25 -1 -28 3 -4 6 0 6 8 1 10 5 8 15 -5 8 -11
15 -15 15 -9 0 6 3 20 6 30 4 14 4 15 -4 4 -8 -11 -11 -10 -20 4 -9 17 -10 16
-17 -4z"/>
<path d="M400 1045 c0 -5 5 -17 10 -25 5 -8 10 -10 10 -5 0 6 -5 17 -10 25 -5
8 -10 11 -10 5z"/>
<path d="M785 1039 c-11 -17 1 -21 15 -4 8 9 8 15 2 15 -6 0 -14 -5 -17 -11z"/>
<path d="M320 995 c0 -8 -6 -13 -12 -11 -7 1 -10 1 -5 -1 4 -3 7 -11 7 -19 0
-27 16 -14 18 16 1 17 0 30 -3 30 -3 0 -5 -7 -5 -15z"/>
<path d="M500 975 c-119 -32 -209 -107 -261 -219 -122 -262 80 -564 369 -551
157 6 277 87 345 234 56 120 39 280 -42 387 -46 61 -117 115 -182 138 -62 23
-167 27 -229 11z m220 -22 c66 -24 111 -55 159 -109 99 -112 123 -268 62 -399
-157 -341 -637 -287 -719 81 -24 110 16 243 102 332 98 103 264 143 396 95z"/>
<path d="M501 896 c-36 -39 -37 -88 -2 -197 33 -101 38 -139 20 -139 -5 0 -7
-5 -3 -12 8 -12 16 -77 16 -135 0 -18 3 -33 7 -33 4 0 6 -20 6 -45 -1 -54 11
-67 61 -63 37 3 38 4 40 48 1 25 5 74 9 110 4 36 7 90 6 120 -1 38 8 84 29
145 36 107 37 141 7 186 -21 30 -27 34 -63 31 -21 -2 -44 -8 -50 -13 -7 -6
-16 -4 -24 6 -18 21 -33 19 -59 -9z"/>
<path d="M864 975 c-7 -17 3 -35 19 -35 8 0 8 3 -1 12 -18 18 -14 31 8 25 11
-3 18 -1 14 4 -8 14 -34 11 -40 -6z"/>
<path d="M246 952 c-2 -4 2 -16 10 -27 12 -16 16 -17 27 -5 10 10 9 11 -2 5
-11 -6 -13 -4 -8 8 4 12 2 14 -10 10 -11 -4 -14 -2 -9 5 4 7 5 12 2 12 -3 0
-7 -3 -10 -8z"/>
<path d="M920 935 c-11 -13 -11 -18 0 -28 10 -9 11 -9 6 1 -4 6 -2 12 4 12 6
0 8 5 4 12 -5 8 -2 9 10 5 10 -4 15 -3 11 3 -9 14 -21 12 -35 -5z"/>
<path d="M206 902 c-14 -13 -4 -23 16 -16 21 6 22 6 8 -12 -14 -18 -14 -18 3
-5 9 7 17 17 17 21 0 10 -37 20 -44 12z"/>
<path d="M949 883 c-13 -17 -13 -17 5 -3 18 14 19 13 14 -7 -7 -27 4 -30 23
-6 12 14 12 16 0 8 -11 -6 -13 -4 -8 8 9 23 -16 22 -34 0z"/>
<path d="M165 850 c-11 -18 6 -32 23 -18 13 11 15 10 9 -5 -4 -11 -3 -16 3
-12 12 7 13 35 2 35 -4 0 -14 -6 -21 -12 -11 -11 -13 -10 -8 5 7 19 2 23 -8 7z"/>
<path d="M1008 829 c-10 -10 -14 -19 -9 -19 6 0 13 5 16 10 4 6 11 8 16 5 5
-3 6 1 3 9 -3 9 -7 16 -8 15 0 0 -9 -9 -18 -20z"/>
<path d="M153 789 c25 -14 21 -31 -5 -24 -21 5 -21 5 -5 -6 12 -7 22 -8 28 -2
14 14 0 43 -20 43 -14 -1 -14 -2 2 -11z"/>
<path d="M1025 780 c-11 -5 -14 -9 -6 -9 8 -1 11 -7 7 -17 -5 -13 -4 -14 7 -6
8 7 17 9 20 5 4 -3 7 -1 7 5 0 7 -6 12 -12 12 -9 0 -8 4 2 10 18 12 2 12 -25
0z"/>
<path d="M111 719 c-1 -18 36 -33 45 -18 10 16 -6 31 -21 19 -10 -8 -14 -7
-18 2 -4 9 -6 8 -6 -3z"/>
<path d="M1048 723 c-10 -2 -18 -9 -18 -15 0 -6 3 -8 7 -5 3 4 12 2 20 -5 11
-9 12 -7 6 8 -6 17 -5 17 10 5 15 -12 17 -12 11 3 -3 9 -9 15 -13 15 -3 -1
-14 -3 -23 -6z"/>
<path d="M110 485 c0 -31 13 -32 28 -2 6 12 11 16 11 10 1 -7 6 -13 12 -13 8
0 8 5 -1 15 -21 25 -50 19 -50 -10z"/>
<path d="M1042 506 c4 -5 3 -15 -2 -21 -8 -9 -4 -11 15 -7 14 2 25 5 23 6 -2
1 -12 8 -23 16 -11 8 -17 10 -13 6z"/>
<path d="M1012 423 c2 -10 12 -19 22 -21 11 -3 16 0 12 7 -4 6 -1 11 6 12 7 0
4 4 -7 9 -30 13 -37 12 -33 -7z"/>
<path d="M154 381 c7 -10 31 -9 42 2 4 4 -5 7 -20 7 -15 0 -25 -4 -22 -9z"/>
<path d="M984 379 c-7 -11 12 -29 31 -29 6 1 2 5 -8 11 -9 6 -15 14 -12 20 4
5 4 9 1 9 -3 0 -8 -5 -12 -11z"/>
<path d="M165 360 c-3 -5 -1 -10 4 -10 6 0 11 5 11 10 0 6 -2 10 -4 10 -3 0
-8 -4 -11 -10z"/>
<path d="M205 330 c-16 -18 -17 -23 -5 -30 21 -13 45 13 33 34 -8 15 -11 15
-28 -4z m25 -8 c0 -13 -12 -22 -22 -16 -10 6 -1 24 13 24 5 0 9 -4 9 -8z"/>
<path d="M943 314 c-3 -9 0 -20 8 -25 22 -14 35 -10 14 4 -10 8 -15 19 -11 25
4 7 5 12 1 12 -3 0 -8 -7 -12 -16z"/>
<path d="M965 310 c-3 -5 1 -10 10 -10 9 0 13 5 10 10 -3 6 -8 10 -10 10 -2 0
-7 -4 -10 -10z"/>
<path d="M253 273 c-3 -10 -8 -22 -11 -26 -2 -5 6 -3 19 3 31 16 39 25 15 16
-14 -5 -17 -2 -12 9 3 8 3 15 0 15 -2 0 -7 -8 -11 -17z"/>
<path d="M910 271 c0 -5 7 -12 16 -15 14 -5 15 -4 4 9 -14 17 -20 19 -20 6z"/>
<path d="M872 247 c-8 -10 -5 -16 11 -27 20 -12 21 -12 9 3 -8 9 -11 21 -7 27
9 14 0 13 -13 -3z"/>
<path d="M294 224 c-10 -8 -13 -13 -6 -9 7 3 15 -1 18 -10 6 -13 8 -14 15 -3
11 17 11 38 1 38 -5 0 -17 -7 -28 -16z"/>
<path d="M830 203 c0 -12 5 -25 10 -28 13 -8 13 15 0 35 -8 12 -10 11 -10 -7z"/>
<path d="M361 191 c-7 -13 -8 -21 -3 -17 6 3 12 1 14 -6 6 -17 28 0 27 20 0
14 -2 13 -8 -3 -8 -19 -9 -18 -12 5 l-4 25 -14 -24z"/>
<path d="M810 180 c6 -11 12 -20 14 -20 2 0 2 9 -1 20 -3 11 -9 20 -15 20 -5
0 -4 -9 2 -20z"/>
<path d="M754 182 c-19 -12 2 -53 23 -45 10 4 12 8 5 11 -7 2 -9 9 -6 14 5 7
2 8 -6 3 -10 -6 -12 -4 -7 8 7 19 7 20 -9 9z"/>
<path d="M433 173 c-17 -6 -16 -28 2 -43 9 -8 15 -8 15 -2 0 6 -5 12 -12 14
-6 2 -8 10 -4 17 5 7 15 10 23 7 8 -3 11 -1 8 4 -7 11 -13 11 -32 3z"/>
<path d="M685 159 c-4 -5 -4 -18 0 -29 7 -23 35 -16 35 10 0 20 -26 34 -35 19z
m25 -20 c0 -5 -4 -9 -10 -9 -5 0 -10 7 -10 16 0 8 5 12 10 9 6 -3 10 -10 10
-16z"/>
<path d="M500 135 c0 -14 5 -25 11 -25 5 0 7 5 4 10 -3 6 0 10 7 10 10 0 10 2
-1 9 -11 7 -11 9 0 14 10 4 9 6 -3 6 -13 1 -18 -7 -18 -24z"/>
<path d="M565 138 c-10 -30 11 -46 32 -25 11 11 13 17 5 17 -7 0 -12 -4 -12
-10 0 -5 -4 -10 -10 -10 -17 0 -11 28 8 32 16 3 16 4 0 10 -12 5 -19 1 -23
-14z"/>
</g>
</svg>
